<svg width="26" height="32" viewBox="0 0 26 32" fill="none" xmlns="http://www.w3.org/2000/svg">
<path d="M13 31.3044C12.9406 31.2464 12.8742 31.1812 12.8012 31.1091C12.4539 30.7663 11.957 30.2679 11.3603 29.6475C10.1665 28.4062 8.57616 26.6793 6.98714 24.7346C5.39657 22.788 3.81609 20.6337 2.63564 18.537C1.44765 16.427 0.699951 14.4358 0.699951 12.8C0.699951 6.0069 6.20685 0.5 13 0.5C19.7931 0.5 25.3 6.0069 25.3 12.8C25.3 14.4358 24.5522 16.427 23.3643 18.537C22.1838 20.6337 20.6033 22.788 19.0128 24.7346C17.4237 26.6793 15.8334 28.4062 14.6396 29.6475C14.0429 30.2679 13.546 30.7663 13.1987 31.1091C13.1257 31.1812 13.0593 31.2464 13 31.3044Z" fill="#98CA02" stroke="#65B300"/>
<mask id="mask0_3_8" style="mask-type:alpha" maskUnits="userSpaceOnUse" x="0" y="0" width="26" height="32">
<path d="M13 31.3044C12.9406 31.2464 12.8742 31.1812 12.8012 31.1091C12.4539 30.7663 11.957 30.2679 11.3603 29.6475C10.1665 28.4062 8.57616 26.6793 6.98714 24.7346C5.39657 22.788 3.81609 20.6337 2.63564 18.537C1.44765 16.427 0.699951 14.4358 0.699951 12.8C0.699951 6.0069 6.20685 0.5 13 0.5C19.7931 0.5 25.3 6.0069 25.3 12.8C25.3 14.4358 24.5522 16.427 23.3643 18.537C22.1838 20.6337 20.6033 22.788 19.0128 24.7346C17.4237 26.6793 15.8334 28.4062 14.6396 29.6475C14.0429 30.2679 13.546 30.7663 13.1987 31.1091C13.1257 31.1812 13.0593 31.2464 13 31.3044Z" fill="white" stroke="white"/>
</mask>
<g mask="url(#mask0_3_8)">
</g>
<path fill-rule="evenodd" clip-rule="evenodd" d="M13 17.6C15.6509 17.6 17.8 15.451 17.8 12.8C17.8 10.149 15.6509 8 13 8C10.349 8 8.19995 10.149 8.19995 12.8C8.19995 15.451 10.349 17.6 13 17.6Z" fill="white" stroke="#65B300"/>
</svg>
