<svg xmlns="http://www.w3.org/2000/svg" viewBox="0 0 217.205 217.205" fill="#98ca02" style="enable-background:new 0 0 217.205 217.205" xml:space="preserve">
  <path d="M167.631 101.102H49.574c-16.216 0-29.408-13.199-29.408-29.422 0-16.211 13.192-29.399 29.408-29.399h73.789c4.143 0 7.5-3.358 7.5-7.5 0-4.142-3.357-7.5-7.5-7.5H49.574c-24.486 0-44.408 19.917-44.408 44.399 0 24.494 19.922 44.422 44.408 44.422h118.057c16.216 0 29.408 13.199 29.408 29.423 0 16.211-13.192 29.399-29.408 29.399H93.205c-4.142 0-7.5 3.358-7.5 7.5s3.358 7.5 7.5 7.5h74.426c24.486 0 44.408-19.917 44.408-44.399 0-24.495-19.922-44.423-44.408-44.423z"/>
  <path d="M48.516 130.001c-17.407 0-31.568 14.162-31.568 31.568 0 26.865 25.192 52.367 26.265 53.439 1.407 1.407 3.314 2.197 5.304 2.197 1.989 0 3.897-.79 5.304-2.197 1.072-1.073 26.263-26.574 26.263-53.439-.002-17.406-14.162-31.568-31.568-31.568zm0 68.356c-6.477-7.995-16.568-22.713-16.568-36.788 0-9.136 7.433-16.568 16.568-16.568 9.135 0 16.566 7.433 16.566 16.568 0 14.075-10.091 28.793-16.566 36.788zM168.053 87.202c1.919 0 3.838-.732 5.302-2.195 1.073-1.072 26.278-26.573 26.278-53.44C199.633 14.161 185.466 0 168.053 0c-17.407 0-31.568 14.161-31.568 31.566 0 26.866 25.192 52.367 26.266 53.439 1.463 1.465 3.382 2.197 5.302 2.197zm0-72.202c9.143 0 16.58 7.432 16.58 16.566 0 14.076-10.1 28.796-16.579 36.79-6.476-7.994-16.569-22.713-16.569-36.79C151.484 22.432 158.917 15 168.053 15z"/>
</svg>
