<svg xmlns="http://www.w3.org/2000/svg" xmlns:xlink="http://www.w3.org/1999/xlink" width="160" height="51" viewBox="0 0 160 51">
    <defs>
        <path id="a" d="M.016 50.94h41.68V.11H.016v50.83z"/>
    </defs>
    <g fill="none" fill-rule="evenodd">
        <path fill="#4C5459" d="M150.519 7.191c-4.335 0-6.773 2.187-7.965 4.748h-.108V7.831h-6.176v1.483c1.75 3.116 2.74 6.717 2.74 10.588 0 3.87-.99 7.471-2.74 10.587v2.95h6.502V19.46c0-3.414 1.678-6.508 5.958-6.508 4.552 0 4.769 4.694 4.769 7.52v12.965H160V17.274c0-5.229-2.492-10.083-9.481-10.083M0 7.831h6.17v4.002h.109C7.415 9.432 9.905 7.19 14.235 7.19c4.004 0 6.766 1.548 8.119 4.748 1.894-3.254 4.655-4.748 8.552-4.748 6.928 0 9.364 4.854 9.364 10.99v15.257h-6.495v-14.51c0-3.2-.975-5.975-4.817-5.975-4.06 0-5.576 3.307-5.576 6.614v13.871h-6.494V18.181c0-3.148-1.3-5.228-4.44-5.228-4.275 0-5.953 3.094-5.953 6.509v13.976H0V7.831zM60.692 29.983h-.162c-1.833 2.89-4.854 4.174-8.306 4.174-4.8 0-9.437-2.621-9.437-7.705 0-8.346 9.815-8.935 16.287-8.935h1.618v-.695c0-3.157-2.481-4.816-5.933-4.816-2.696 0-5.177 1.07-6.904 2.675l-3.397-3.37c2.859-2.89 6.903-4.12 11.002-4.12 11.057 0 11.057 7.919 11.057 11.557v14.767h-5.825v-3.532zm-.377-7.972h-1.349c-3.56 0-9.708.268-9.708 3.96 0 2.354 2.427 3.37 4.531 3.37 4.422 0 6.526-2.3 6.526-5.885v-1.445zM94.305 20.04c0-2.693.473-5.258 1.343-7.624C93.45 9.213 89.83 7.19 85.111 7.19c-3.662 0-7.105 1.402-9.018 4.53h-.109V7.838h-6.231v38.184h6.559V30.435h.164c1.366 1.673 3.989 3.938 8.908 3.938 4.663 0 8.433-2.3 10.616-5.885a21.736 21.736 0 0 1-1.695-8.447M83.8 28.548c-4.81 0-7.707-3.72-7.707-7.766 0-4.044 2.897-7.766 7.707-7.766 4.809 0 7.705 3.722 7.705 7.766 0 4.045-2.896 7.766-7.705 7.766"/>
        <g transform="translate(94.562)">
            <mask id="b" fill="#fff">
                <use xlink:href="#a"/>
            </mask>
            <path fill="#98CA02" d="M33.917 19.779c0 6.568-5.35 11.892-11.947 11.892-6.597 0-11.946-5.324-11.946-11.892S15.374 7.886 21.97 7.886c6.598 0 11.947 5.325 11.947 11.893zM.016 50.94l14.15-13.117c9.067 3.888 19.824.487 24.882-8.234 5.45-9.399 2.216-21.417-7.225-26.844C22.38-2.68 10.307.54 4.857 9.94c-4.46 7.688-3.105 17.126 2.7 23.278L.015 50.94z" mask="url(#b)"/>
        </g>
    </g>
</svg>